<mxfile host="app.diagrams.net" modified="2021-11-15T15:07:47.245Z" agent="5.0 (Windows NT 10.0; Win64; x64) AppleWebKit/537.36 (KHTML, like Gecko) Chrome/95.0.4638.69 Safari/537.36" etag="1Leo5um2-g6HTMTxPJIC" version="15.7.1" type="github">
  <diagram id="g1Ea1sE99UokIJiuxwNI" name="Page-1">
    <mxGraphModel dx="1316" dy="1045" grid="0" gridSize="10" guides="1" tooltips="1" connect="1" arrows="1" fold="1" page="1" pageScale="1" pageWidth="1169" pageHeight="827" background="none" math="0" shadow="0">
      <root>
        <mxCell id="0" />
        <mxCell id="3xRHyhHIbvwl35EICh01-24" value="background" style="locked=1;" parent="0" visible="0" />
        <mxCell id="3xRHyhHIbvwl35EICh01-26" value="" style="rounded=1;whiteSpace=wrap;html=1;strokeWidth=2;fillWeight=4;hachureGap=5;hachureAngle=70;fillColor=#96D9FF;sketch=1;shadow=0;align=left;glass=0;fillStyle=hachure;comic=0;fixDash=0;labelPadding=0;fontFamily=Itim;fontSource=https%3A%2F%2Ffonts.googleapis.com%2Fcss%3Ffamily%3DItim;fontStyle=1;verticalAlign=top;spacingLeft=8;jiggle=2;disableMultiStroke=0;disableMultiStrokeFill=0;simplification=0;arcSize=3;movable=1;resizable=1;rotatable=1;deletable=1;editable=1;connectable=1;" parent="3xRHyhHIbvwl35EICh01-24" vertex="1">
          <mxGeometry x="20" y="8.5" width="1134.79" height="790" as="geometry" />
        </mxCell>
        <mxCell id="3xRHyhHIbvwl35EICh01-27" value="" style="rounded=1;whiteSpace=wrap;html=1;strokeWidth=2;fillWeight=4;hachureGap=10;hachureAngle=20;fillColor=#66CC00;sketch=1;shadow=0;align=left;glass=0;fillStyle=zigzag;comic=0;fixDash=0;labelPadding=0;fontFamily=Itim;fontSource=https%3A%2F%2Ffonts.googleapis.com%2Fcss%3Ffamily%3DItim;fontStyle=1;verticalAlign=top;spacingLeft=8;jiggle=6;disableMultiStroke=0;disableMultiStrokeFill=0;simplification=0;arcSize=50;strokeColor=none;fontColor=#ffffff;direction=south;rotation=-191;" parent="3xRHyhHIbvwl35EICh01-24" vertex="1">
          <mxGeometry x="700.0040751817675" y="29.997616538974345" width="371.6699822335137" height="750.5383788252432" as="geometry" />
        </mxCell>
        <mxCell id="3xRHyhHIbvwl35EICh01-28" value="" style="rounded=1;whiteSpace=wrap;html=1;strokeWidth=2;fillWeight=6;hachureGap=10;hachureAngle=20;fillColor=#fa6800;sketch=1;shadow=0;align=left;glass=0;fillStyle=zigzag-line;comic=0;fixDash=0;labelPadding=0;fontFamily=Itim;fontSource=https%3A%2F%2Ffonts.googleapis.com%2Fcss%3Ffamily%3DItim;fontStyle=1;verticalAlign=top;spacingLeft=8;jiggle=2;disableMultiStroke=0;disableMultiStrokeFill=0;simplification=0;arcSize=35;strokeColor=none;fontColor=#000000;direction=south;rotation=-97;" parent="3xRHyhHIbvwl35EICh01-24" vertex="1">
          <mxGeometry x="208.48" y="213.92" width="374.29" height="742.01" as="geometry" />
        </mxCell>
        <mxCell id="3xRHyhHIbvwl35EICh01-29" value="" style="rounded=1;whiteSpace=wrap;html=1;strokeWidth=2;fillWeight=6;hachureGap=10;hachureAngle=20;fillColor=#d80073;sketch=1;shadow=0;align=left;glass=0;fillStyle=dashed;comic=0;fixDash=0;labelPadding=0;fontFamily=Itim;fontSource=https%3A%2F%2Ffonts.googleapis.com%2Fcss%3Ffamily%3DItim;fontStyle=1;verticalAlign=top;spacingLeft=8;jiggle=2;disableMultiStroke=0;disableMultiStrokeFill=0;simplification=0;arcSize=35;strokeColor=none;fontColor=#ffffff;direction=south;rotation=-81;" parent="3xRHyhHIbvwl35EICh01-24" vertex="1">
          <mxGeometry x="216.77" y="-105.16" width="372.4" height="737.45" as="geometry" />
        </mxCell>
        <mxCell id="1" value="boxes" style="" parent="0" />
        <mxCell id="wfl3Rg0Rn2dCTV5lHboT-3" value="" style="edgeStyle=orthogonalEdgeStyle;orthogonalLoop=1;jettySize=auto;html=1;jumpStyle=none;sketch=1;rounded=1;strokeWidth=3;exitX=1;exitY=0.5;exitDx=0;exitDy=0;shadow=0;strokeColor=#000000;" parent="1" source="wfl3Rg0Rn2dCTV5lHboT-1" target="wfl3Rg0Rn2dCTV5lHboT-2" edge="1">
          <mxGeometry relative="1" as="geometry">
            <Array as="points">
              <mxPoint x="360" y="135" />
              <mxPoint x="360" y="125" />
            </Array>
          </mxGeometry>
        </mxCell>
        <mxCell id="wfl3Rg0Rn2dCTV5lHboT-1" value="&lt;b style=&quot;background-color: rgb(255, 255, 255); font-size: 17px;&quot;&gt;&lt;font color=&quot;#cc0066&quot; style=&quot;font-size: 17px;&quot;&gt;1. PIXELFÖRDELNING&lt;/font&gt;&lt;br style=&quot;font-size: 17px;&quot;&gt;&lt;/b&gt;Gå till länken: &lt;font color=&quot;#004c99&quot; style=&quot;font-size: 17px;&quot;&gt;&lt;b style=&quot;font-size: 17px;&quot;&gt;tiigbg.se/koda/a1&lt;/b&gt;&lt;/font&gt;&lt;br style=&quot;font-size: 17px;&quot;&gt;&lt;br style=&quot;font-size: 17px;&quot;&gt;Lotass har gjort det här programmet för att lysa upp 3/5 av pixlarna. Ändra programmet så att det istället visar 4/5.&lt;br style=&quot;font-size: 17px;&quot;&gt;&lt;br style=&quot;font-size: 17px;&quot;&gt;&lt;b style=&quot;font-size: 17px;&quot;&gt;Extra utmaningar:&lt;br style=&quot;font-size: 17px;&quot;&gt;&lt;/b&gt;Kan du göra så att programmet växlar mellan:&lt;br style=&quot;font-size: 17px;&quot;&gt;-&amp;nbsp;&lt;span style=&quot;font-size: 17px;&quot;&gt;Olika lösningar av samma fördelning?&amp;nbsp;&lt;/span&gt;&lt;div style=&quot;font-size: 17px;&quot;&gt;- 1/5, 2/5, 3/5, 4/5 och 1?&amp;nbsp;&lt;/div&gt;&lt;div style=&quot;font-size: 17px;&quot;&gt;- Lösningar när man trycker på knapparna?&amp;nbsp;&amp;nbsp;&lt;/div&gt;" style="rounded=1;whiteSpace=wrap;strokeWidth=2;fillWeight=6;hachureGap=7;hachureAngle=40;sketch=1;glass=0;shadow=1;fillStyle=zigzag;align=left;comic=0;spacingLeft=6;verticalAlign=top;fontFamily=Itim;fontSource=https%3A%2F%2Ffonts.googleapis.com%2Fcss%3Ffamily%3DItim;fontStyle=0;jiggle=2;direction=east;portConstraint=none;connectable=1;strokeOpacity=100;fillOpacity=100;labelPadding=0;fixDash=0;container=0;simplification=0;disableMultiStroke=0;disableMultiStrokeFill=0;dashOffset=6;zigzagOffset=-10;sketchStyle=rough;fontSize=17;strokeColor=default;fillColor=default;html=1;fontColor=default;noLabel=0;spacingTop=-4;spacing=10;labelBackgroundColor=none;labelBorderColor=none;" parent="1" vertex="1">
          <mxGeometry x="10" y="10" width="368" height="267" as="geometry" />
        </mxCell>
        <mxCell id="wfl3Rg0Rn2dCTV5lHboT-5" value="" style="edgeStyle=orthogonalEdgeStyle;orthogonalLoop=1;jettySize=auto;html=1;elbow=vertical;jumpStyle=arc;strokeColor=#000000;endArrow=classic;strokeWidth=3;sketch=1;entryX=0;entryY=0.5;entryDx=0;entryDy=0;shadow=0;" parent="1" source="wfl3Rg0Rn2dCTV5lHboT-2" target="3xRHyhHIbvwl35EICh01-1" edge="1">
          <mxGeometry relative="1" as="geometry">
            <mxPoint x="840" y="100" as="targetPoint" />
          </mxGeometry>
        </mxCell>
        <mxCell id="wfl3Rg0Rn2dCTV5lHboT-2" value="&lt;div&gt;&lt;b&gt;&lt;font color=&quot;#cc0066&quot; style=&quot;background-color: rgb(255 , 255 , 255)&quot;&gt;2. GODISRÄKNAREN&lt;/font&gt;&lt;/b&gt;&lt;/div&gt;&lt;div&gt;Gå till länken: &lt;b&gt;&lt;font color=&quot;#004c99&quot;&gt;tiigbg.se/koda/a2&lt;/font&gt;&amp;nbsp;&lt;/b&gt;&lt;/div&gt;&lt;div&gt;&lt;b&gt;&lt;br&gt;&lt;/b&gt;&lt;/div&gt;&lt;div&gt;Marianne har gjort det här programmet för att räkna ut priset för ett visst antal kolagodis som kostar 6 kr styck. Ändra hennes program så att du kan räkna ut priset på 10 st lakritsgodis. En lakritsgodis kostar 5 kr.&amp;nbsp;&lt;/div&gt;&lt;div&gt;&amp;nbsp;&lt;/div&gt;&lt;div&gt;&lt;b&gt;Extra utmaning: &lt;/b&gt;Kan du göra så att det också går att ändra priset per godis med en knapp?&amp;nbsp;&lt;/div&gt;" style="rounded=1;whiteSpace=wrap;html=1;strokeWidth=2;fillWeight=6;hachureGap=7;hachureAngle=40;sketch=1;shadow=1;align=left;glass=0;fillStyle=zigzag;comic=0;fixDash=0;labelPadding=0;fontFamily=Itim;fontSource=https%3A%2F%2Ffonts.googleapis.com%2Fcss%3Ffamily%3DItim;fontStyle=0;verticalAlign=top;spacingLeft=6;jiggle=2;disableMultiStroke=0;disableMultiStrokeFill=0;simplification=0;strokeColor=default;fillColor=default;sketchStyle=rough;direction=east;fontSize=17;spacing=10;spacingTop=-4;" parent="1" vertex="1">
          <mxGeometry x="407" y="31" width="370" height="255" as="geometry" />
        </mxCell>
        <mxCell id="3xRHyhHIbvwl35EICh01-1" value="&lt;div&gt;&lt;b&gt;&lt;font color=&quot;#cc0066&quot; style=&quot;background-color: rgb(255 , 255 , 255)&quot;&gt;3. EXPLOSIONEN&amp;nbsp;&lt;/font&gt;&lt;/b&gt;&lt;/div&gt;&lt;div&gt;Gå till länken: &lt;b&gt;&lt;font color=&quot;#004c99&quot;&gt;&lt;a href=&quot;tiigbg.se/koda/a3&quot;&gt;tiigbg.se/koda/a3&lt;/a&gt;&lt;/font&gt;&lt;/b&gt;&lt;/div&gt;&lt;div&gt;Otis har skapat en animerad explosion för sin microbit. Hjälp Otis skapa en spännande nedräkning! Bygg på programmet så att siffrorna 3, 2, 1 visas efter varandra innan explosionen.&amp;nbsp;&lt;/div&gt;&lt;div&gt;&amp;nbsp;&lt;/div&gt;&lt;div&gt;&lt;b&gt;Ledtråd: &lt;/b&gt;Använd “Visa siffra”-blocket. Kom ihåg att du kan använda flera block av samma typ.&amp;nbsp;&amp;nbsp;&lt;/div&gt;&lt;div&gt;&lt;b&gt;Extra utmaning: &lt;/b&gt;Kan du även lägga till så att programmet startar först efter ett knapptryck?&amp;nbsp;&lt;/div&gt;" style="rounded=1;whiteSpace=wrap;html=1;strokeWidth=2;fillWeight=6;hachureGap=7;hachureAngle=40;sketch=1;shadow=1;align=left;glass=0;fillStyle=zigzag;comic=0;fixDash=0;labelPadding=0;fontFamily=Itim;fontSource=https%3A%2F%2Ffonts.googleapis.com%2Fcss%3Ffamily%3DItim;fontStyle=0;verticalAlign=top;spacingLeft=6;jiggle=2;disableMultiStroke=0;disableMultiStrokeFill=0;simplification=0;strokeColor=default;fillColor=default;sketchStyle=rough;direction=east;fontSize=17;spacing=10;spacingTop=-4;" parent="1" vertex="1">
          <mxGeometry x="824" y="26" width="318" height="313" as="geometry" />
        </mxCell>
        <mxCell id="3xRHyhHIbvwl35EICh01-4" value="&lt;div&gt;&lt;b&gt;&lt;font color=&quot;#cc0066&quot; style=&quot;background-color: rgb(255 , 255 , 255)&quot;&gt;4. HUMÖRSBRICKAN&amp;nbsp;&lt;/font&gt;&lt;/b&gt;&lt;/div&gt;&lt;div&gt;Gå till länken: &lt;b&gt;&lt;font color=&quot;#004c99&quot;&gt;tiigbg.se/koda/a4&lt;/font&gt;&lt;/b&gt;&lt;/div&gt;&lt;div&gt;&lt;b&gt;&lt;font color=&quot;#004c99&quot;&gt;&lt;br&gt;&lt;/font&gt;&lt;/b&gt;&lt;/div&gt;&lt;div&gt;Använd “input”-blocken för att bygga en humörsbricka. Knapp A ska göra att displayen visar en glad smiley. Knapp B ska göra att en ledsen smiley visas.&amp;nbsp;&lt;/div&gt;&lt;div&gt;&amp;nbsp;&lt;/div&gt;&lt;div&gt;&lt;b&gt;Ledtråd: &lt;/b&gt;Det går att rita egna smileys med det blå “show led”-blocket eller använda “visa ikon” och bläddra fram till den smiley du vill ha.&amp;nbsp;&lt;/div&gt;&lt;div&gt;&amp;nbsp;&lt;/div&gt;&lt;div&gt;&lt;b&gt;Extra utmaning: &lt;/b&gt;Kan du ändra på en av smileysarna? Går det att ha fler än två olika smileys att visa I sitt program?&amp;nbsp;&lt;/div&gt;" style="rounded=1;whiteSpace=wrap;html=1;strokeWidth=2;fillWeight=6;hachureGap=7;hachureAngle=40;sketch=1;shadow=1;align=left;glass=0;fillStyle=zigzag;comic=0;fixDash=0;labelPadding=0;fontFamily=Itim;fontSource=https%3A%2F%2Ffonts.googleapis.com%2Fcss%3Ffamily%3DItim;fontStyle=0;verticalAlign=top;spacingLeft=6;jiggle=2;disableMultiStroke=0;disableMultiStrokeFill=0;simplification=0;strokeColor=default;fillColor=default;sketchStyle=rough;direction=east;fontSize=17;spacing=10;spacingTop=-4;" parent="1" vertex="1">
          <mxGeometry x="395" y="309" width="289" height="409" as="geometry" />
        </mxCell>
        <mxCell id="3xRHyhHIbvwl35EICh01-6" value="&lt;div&gt;&lt;b&gt;&lt;font color=&quot;#cc0066&quot; style=&quot;background-color: rgb(255 , 255 , 255)&quot;&gt;5. KLICKRÄKNAREN&amp;nbsp;&lt;/font&gt;&lt;/b&gt;&lt;/div&gt;&lt;div&gt;Gå till länken: &lt;b&gt;&lt;font color=&quot;#004c99&quot;&gt;tiigbg.se/koda/a5&amp;nbsp;&lt;/font&gt;&lt;/b&gt;&lt;/div&gt;&lt;div&gt;&lt;br&gt;&lt;/div&gt;&lt;div&gt;Efraim började skapa ett program för att räkna klasskamrater, men han blev inte färdig. Färdigställ hans program så att siffran på skärmen minskar respektive ökar när man klickar på knapparna A och B.&amp;nbsp;&lt;/div&gt;" style="rounded=1;whiteSpace=wrap;html=1;strokeWidth=2;fillWeight=6;hachureGap=7;hachureAngle=40;sketch=1;shadow=1;align=left;glass=0;fillStyle=zigzag;comic=0;fixDash=0;labelPadding=0;fontFamily=Itim;fontSource=https%3A%2F%2Ffonts.googleapis.com%2Fcss%3Ffamily%3DItim;fontStyle=0;verticalAlign=top;spacingLeft=6;jiggle=2;disableMultiStroke=0;disableMultiStrokeFill=0;simplification=0;strokeColor=default;fillColor=default;sketchStyle=rough;direction=east;fontSize=17;spacing=10;spacingTop=-4;" parent="1" vertex="1">
          <mxGeometry x="14" y="296" width="303" height="208" as="geometry" />
        </mxCell>
        <mxCell id="3xRHyhHIbvwl35EICh01-7" value="" style="edgeStyle=orthogonalEdgeStyle;orthogonalLoop=1;jettySize=auto;html=1;elbow=vertical;jumpStyle=arc;strokeColor=#000000;endArrow=classic;strokeWidth=3;sketch=1;shadow=0;" parent="1" source="3xRHyhHIbvwl35EICh01-4" target="3xRHyhHIbvwl35EICh01-6" edge="1">
          <mxGeometry relative="1" as="geometry">
            <mxPoint x="550" y="420" as="sourcePoint" />
            <mxPoint x="530" y="565" as="targetPoint" />
          </mxGeometry>
        </mxCell>
        <mxCell id="3xRHyhHIbvwl35EICh01-8" value="&lt;div&gt;&lt;b&gt;&lt;font color=&quot;#cc0066&quot;&gt;6. TÄRNING&amp;nbsp;&lt;/font&gt;&lt;/b&gt;&lt;/div&gt;&lt;div&gt;Gå till länken: tiigbg.se/koda/a6&lt;/div&gt;&lt;div&gt;&lt;br&gt;&lt;/div&gt;&lt;div&gt;Gör ett program som fungerar som en vanlig 6-sidig tärning. När du skakar din microbit ska en siffra mellan 1-6 visas på skärmen.&amp;nbsp;&amp;nbsp;&lt;/div&gt;&lt;div&gt;Ledtråd: I matematikkategorin finns det ett särskilt block för att slumpa fram siffror&amp;nbsp;&lt;/div&gt;&lt;div&gt;&amp;nbsp;&lt;/div&gt;&lt;div&gt;&lt;b&gt;Extra utmaning:&lt;/b&gt; Kan du göra tärningen ännu mer lik en riktig genom att visa prickar istället för siffror när du slår tärningen?&amp;nbsp;&lt;/div&gt;" style="rounded=1;whiteSpace=wrap;html=1;strokeWidth=2;fillWeight=6;hachureGap=7;hachureAngle=40;sketch=1;shadow=1;align=left;glass=0;fillStyle=zigzag;comic=0;fixDash=0;labelPadding=0;fontFamily=Itim;fontSource=https%3A%2F%2Ffonts.googleapis.com%2Fcss%3Ffamily%3DItim;fontStyle=0;verticalAlign=top;spacingLeft=6;jiggle=2;disableMultiStroke=0;disableMultiStrokeFill=0;simplification=0;strokeColor=default;fillColor=default;sketchStyle=rough;direction=east;fontSize=17;spacing=10;spacingTop=-4;" parent="1" vertex="1">
          <mxGeometry x="16" y="544" width="349" height="273" as="geometry" />
        </mxCell>
        <mxCell id="3xRHyhHIbvwl35EICh01-10" value="&lt;div&gt;&lt;font color=&quot;#cc0066&quot;&gt;&lt;b&gt;7. SKÖLDPADDAN&amp;nbsp;&lt;/b&gt;&lt;/font&gt;&lt;/div&gt;&lt;div&gt;Gå till länken: &lt;b&gt;&lt;font color=&quot;#004c99&quot;&gt;tiigbg.se/koda/a7&lt;/font&gt;&lt;/b&gt;&lt;/div&gt;&lt;div&gt;&lt;b&gt;&lt;font color=&quot;#004c99&quot;&gt;&lt;br&gt;&lt;/font&gt;&lt;/b&gt;&lt;/div&gt;&lt;div&gt;Pella gillar att rita med sköldpaddan. Kan du hjälpa henne så att sköldpaddan besöker alla fyra hörnen? Förtydliga resultatet genom att se till att sköldpaddan ritar ut ett spår där den gått.&amp;nbsp;&lt;/div&gt;&lt;div&gt;Ledtråd: Loopar kan underlätta för att slippa kopiera många likadana block.&lt;/div&gt;&lt;div&gt;&lt;br&gt;&lt;/div&gt;&lt;div&gt;&lt;b&gt;Extrautmaning:&lt;/b&gt; Täck alla pixlar UTAN att sköldpaddan går I sitt eget spår.&amp;nbsp;&lt;/div&gt;" style="rounded=1;whiteSpace=wrap;html=1;strokeWidth=2;fillWeight=6;hachureGap=7;hachureAngle=40;sketch=1;shadow=1;align=left;glass=0;fillStyle=zigzag;comic=0;fixDash=0;labelPadding=0;fontFamily=Itim;fontSource=https%3A%2F%2Ffonts.googleapis.com%2Fcss%3Ffamily%3DItim;fontStyle=0;verticalAlign=top;spacingLeft=6;jiggle=2;disableMultiStroke=0;disableMultiStrokeFill=0;simplification=0;strokeColor=default;fillColor=default;sketchStyle=rough;direction=east;fontSize=17;spacing=10;spacingTop=-4;" parent="1" vertex="1">
          <mxGeometry x="715" y="538" width="431" height="275" as="geometry" />
        </mxCell>
        <mxCell id="3xRHyhHIbvwl35EICh01-11" value="&lt;div&gt;&lt;b&gt;&lt;font color=&quot;#cc0066&quot;&gt;8. STEN SAX PÅSE&lt;/font&gt;&lt;/b&gt;&lt;/div&gt;&lt;div&gt;&lt;div&gt;Gå till länken:&amp;nbsp;&lt;b&gt;&lt;font color=&quot;#004c99&quot;&gt;tiigbg.se/koda/a8&lt;/font&gt;&lt;/b&gt;&lt;/div&gt;&lt;/div&gt;&lt;div&gt;&lt;b&gt;&lt;font color=&quot;#004c99&quot;&gt;&lt;br&gt;&lt;/font&gt;&lt;/b&gt;&lt;/div&gt;&lt;div&gt;Programmet visar en slumpad siffra mellan 1-3 när microbiten skakas. Gör så att programmet istället visar tre olika ikoner som representerar sten, sax och påse.&amp;nbsp;&lt;/div&gt;" style="rounded=1;whiteSpace=wrap;html=1;strokeWidth=2;fillWeight=6;hachureGap=7;hachureAngle=40;sketch=1;shadow=1;align=left;glass=0;fillStyle=zigzag;comic=0;fixDash=0;labelPadding=0;fontFamily=Itim;fontSource=https%3A%2F%2Ffonts.googleapis.com%2Fcss%3Ffamily%3DItim;fontStyle=0;verticalAlign=top;spacingLeft=6;jiggle=2;disableMultiStroke=0;disableMultiStrokeFill=0;simplification=0;strokeColor=default;fillColor=default;sketchStyle=rough;direction=east;fontSize=17;spacing=10;spacingTop=-4;" parent="1" vertex="1">
          <mxGeometry x="752" y="356" width="372" height="156" as="geometry" />
        </mxCell>
        <mxCell id="3xRHyhHIbvwl35EICh01-12" value="" style="edgeStyle=orthogonalEdgeStyle;orthogonalLoop=1;jettySize=auto;html=1;elbow=vertical;jumpStyle=arc;strokeColor=#000000;endArrow=classic;strokeWidth=3;sketch=1;exitX=0.5;exitY=0;exitDx=0;exitDy=0;shadow=0;entryX=0;entryY=0.75;entryDx=0;entryDy=0;" parent="1" source="3xRHyhHIbvwl35EICh01-10" target="3xRHyhHIbvwl35EICh01-11" edge="1">
          <mxGeometry relative="1" as="geometry">
            <mxPoint x="1140" y="650" as="sourcePoint" />
            <mxPoint x="880" y="620" as="targetPoint" />
            <Array as="points">
              <mxPoint x="931" y="525" />
              <mxPoint x="727" y="525" />
              <mxPoint x="727" y="473" />
            </Array>
          </mxGeometry>
        </mxCell>
        <mxCell id="3xRHyhHIbvwl35EICh01-13" value="" style="edgeStyle=orthogonalEdgeStyle;orthogonalLoop=1;jettySize=auto;html=1;elbow=vertical;jumpStyle=arc;strokeColor=#000000;endArrow=classic;strokeWidth=3;sketch=1;exitX=1;exitY=0.75;exitDx=0;exitDy=0;shadow=0;entryX=0;entryY=0.75;entryDx=0;entryDy=0;" parent="1" source="3xRHyhHIbvwl35EICh01-8" target="3xRHyhHIbvwl35EICh01-10" edge="1">
          <mxGeometry relative="1" as="geometry">
            <mxPoint x="780" y="630" as="sourcePoint" />
            <mxPoint x="720" y="710" as="targetPoint" />
            <Array as="points">
              <mxPoint x="453" y="749" />
              <mxPoint x="453" y="800" />
              <mxPoint x="429" y="800" />
              <mxPoint x="429" y="778" />
              <mxPoint x="563" y="778" />
              <mxPoint x="563" y="812" />
              <mxPoint x="620" y="812" />
              <mxPoint x="620" y="744" />
              <mxPoint x="596" y="744" />
              <mxPoint x="596" y="784" />
              <mxPoint x="680" y="784" />
              <mxPoint x="680" y="744" />
            </Array>
          </mxGeometry>
        </mxCell>
        <mxCell id="3xRHyhHIbvwl35EICh01-22" value="" style="edgeStyle=orthogonalEdgeStyle;orthogonalLoop=1;jettySize=auto;html=1;elbow=vertical;jumpStyle=arc;strokeColor=#000000;endArrow=classic;strokeWidth=3;sketch=1;entryX=1;entryY=0.25;entryDx=0;entryDy=0;shadow=0;exitX=0;exitY=0.75;exitDx=0;exitDy=0;" parent="1" source="3xRHyhHIbvwl35EICh01-1" target="3xRHyhHIbvwl35EICh01-4" edge="1">
          <mxGeometry relative="1" as="geometry">
            <mxPoint x="818" y="254" as="sourcePoint" />
            <mxPoint x="860" y="435" as="targetPoint" />
            <Array as="points">
              <mxPoint x="795" y="261" />
              <mxPoint x="795" y="327" />
              <mxPoint x="720" y="327" />
              <mxPoint x="720" y="411" />
            </Array>
          </mxGeometry>
        </mxCell>
        <mxCell id="3xRHyhHIbvwl35EICh01-31" value="" style="edgeStyle=orthogonalEdgeStyle;orthogonalLoop=1;jettySize=auto;html=1;elbow=vertical;jumpStyle=arc;strokeColor=#000000;endArrow=classic;strokeWidth=3;sketch=1;shadow=0;exitX=0.5;exitY=1;exitDx=0;exitDy=0;entryX=0.25;entryY=0;entryDx=0;entryDy=0;" parent="1" source="3xRHyhHIbvwl35EICh01-6" target="3xRHyhHIbvwl35EICh01-8" edge="1">
          <mxGeometry relative="1" as="geometry">
            <mxPoint x="217" y="689.5" as="sourcePoint" />
            <mxPoint x="162" y="544" as="targetPoint" />
            <Array as="points">
              <mxPoint x="166" y="519" />
              <mxPoint x="103" y="519" />
            </Array>
          </mxGeometry>
        </mxCell>
      </root>
    </mxGraphModel>
  </diagram>
</mxfile>
